<svg width="200" height="51" viewBox="0 0 200 51" fill="none" xmlns="http://www.w3.org/2000/svg">
<path d="M11.3655 2.68305C11.3655 1.23872 10.0007 0.815379 8.86127 0.865184V1.10176C9.54992 1.10176 10.1134 1.33833 10.1134 1.78657C10.1134 2.23481 9.87547 2.50874 9.19933 2.50874C8.35496 2.41436 7.52609 2.21353 6.7327 1.91108C5.93278 1.58607 5.08892 1.38047 4.22851 1.30097C3.90743 1.29103 3.58755 1.34452 3.28739 1.45834C2.98724 1.57216 2.71277 1.74405 2.47987 1.96407C2.24697 2.18409 2.06027 2.44786 1.93058 2.74012C1.80089 3.03238 1.73078 3.34731 1.72431 3.66669C1.72145 4.01778 1.83004 4.36081 2.03462 4.64696C2.23919 4.93311 2.52933 5.14779 2.86372 5.26044L2.96389 5.08612C2.81618 5.02286 2.69144 4.9162 2.6064 4.78045C2.52136 4.6447 2.48008 4.48634 2.48809 4.3266C2.50047 4.20578 2.53706 4.08864 2.59572 3.98212C2.65439 3.87559 2.73392 3.78184 2.82963 3.70639C2.92534 3.63095 3.03529 3.57534 3.15297 3.54286C3.27065 3.51038 3.39369 3.50168 3.51481 3.51728C4.43417 3.61577 5.33811 3.82481 6.20682 4.13984C7.09141 4.3953 7.99029 4.59902 8.89883 4.74994V7.04096L7.78446 7.97479V8.06195L8.89883 9.03314V12.1459C8.34187 12.444 7.71545 12.5901 7.08329 12.5693C6.54439 12.5969 6.00596 12.5064 5.50613 12.3041C5.00631 12.1019 4.55732 11.7928 4.19094 11.3989L7.19598 9.95453V4.97406L3.51481 6.59271C3.90643 5.69804 4.59025 4.96099 5.45556 4.50092V4.3266C4.29539 4.60752 3.25666 5.25163 2.49246 6.164C1.72826 7.07638 1.27902 8.20875 1.21095 9.39422C1.20931 10.0706 1.34185 10.7406 1.60098 11.3659C1.86012 11.9913 2.24077 12.5596 2.72112 13.0384C3.20147 13.5173 3.77209 13.8972 4.4003 14.1564C5.02851 14.4156 5.70197 14.549 6.38212 14.549C7.01723 14.5642 7.64887 14.4515 8.239 14.2175C8.82914 13.9836 9.36555 13.6333 9.81594 13.1878C10.2663 12.7422 10.6214 12.2106 10.8597 11.625C11.098 11.0394 11.2147 10.4118 11.2027 9.78021H11.0399C10.6494 10.7118 9.99191 11.5086 9.14925 12.0712V9.03314L10.3387 8.06195V7.96234L9.17429 7.01605V4.7873C9.45799 4.7956 9.7405 4.7474 10.0052 4.64553C10.2699 4.54367 10.5114 4.39019 10.7156 4.19412C10.9197 3.99806 11.0824 3.76337 11.194 3.50387C11.3056 3.24437 11.3639 2.96529 11.3655 2.68305ZM4.97977 10.7763L4.09078 11.1996C3.50158 10.396 3.20565 9.41653 3.25187 8.42303C3.23583 7.8806 3.30339 7.33893 3.45221 6.81683L4.99229 6.14447V10.7763H4.97977ZM12.7678 12.3949L11.7912 13.1171L11.9039 13.2541L12.3797 12.9304L14.0324 14.4245L16.2361 12.9677L16.1234 12.8058L15.5475 13.1669L14.8338 12.4572V7.47675L15.4223 7.04096L16.6744 8.0495V12.4821C16.6744 15.2463 16.0608 15.707 14.7962 16.2175V16.4042C16.8872 16.4914 18.7528 15.7941 18.7528 12.2455V7.38959L19.3789 6.87909V6.71723L18.7904 7.16547L16.8747 5.57172L14.8338 7.19037V1.16401H14.671L12.0666 2.90717V3.08149C12.2976 3.1601 12.4938 3.31614 12.6217 3.52286C12.7497 3.72958 12.8013 3.97411 12.7678 4.21454V12.4199V12.3949ZM26.2028 11.6105L24.3873 13.0424L22.5342 11.5358V10.6642L26.015 8.34833V8.24872L24.2746 5.57172L20.5183 7.60126V12.4199L19.767 13.0051L19.8922 13.1545L20.5684 12.6191L23.0726 14.412L26.3405 11.7973L26.2028 11.6105ZM22.5342 10.3654V6.81683L22.6469 6.72968L24.2621 9.30707L22.5342 10.4526V10.3654ZM40.2764 2.02314C40.2706 1.78867 40.224 1.55697 40.1387 1.33833H39.9634C39.7255 1.94843 39.45 2.28461 38.7113 2.28461C38.4457 2.27319 38.1852 2.20761 37.9461 2.09195C37.7071 1.97629 37.4944 1.81302 37.3214 1.61225L35.2304 4.10248L35.4057 4.2519L35.9942 3.57954C36.2332 3.80885 36.5157 3.98859 36.8253 4.1083C37.1348 4.228 37.4652 4.28528 37.7972 4.2768V10.3032L33.49 2.83247C33.324 2.45288 33.0588 2.12446 32.7219 1.88139C32.385 1.63832 31.9887 1.48949 31.5743 1.45039C31.2512 1.46356 30.9348 1.54649 30.6472 1.69344C30.3596 1.84038 30.1075 2.04781 29.9086 2.30133C29.7096 2.55485 29.5685 2.84838 29.4951 3.16156C29.4217 3.47474 29.4176 3.80006 29.4833 4.11493H29.6962C29.6962 3.65424 29.9716 3.16865 30.485 3.16865C30.6952 3.19968 30.894 3.2834 31.0626 3.41192C31.2313 3.54044 31.3643 3.70953 31.4491 3.90326V6.33124C30.1469 6.33124 29.2705 6.94135 29.2705 8.06195C29.251 8.44156 29.3654 8.81602 29.594 9.12065C29.8226 9.42528 30.1511 9.64095 30.5226 9.7304V9.56854C30.4462 9.50928 30.3841 9.43381 30.3408 9.34765C30.2974 9.26149 30.274 9.16681 30.2721 9.07049C30.2721 8.67206 30.5726 8.41058 31.111 8.41058H31.4992V11.4985C29.9341 11.4985 28.7321 12.37 28.7321 13.8393C28.7427 14.1415 28.8192 14.4378 28.9561 14.7078C29.0931 14.9777 29.2872 15.215 29.5252 15.4032C29.7633 15.5913 30.0395 15.726 30.3349 15.7978C30.6303 15.8695 30.9378 15.8768 31.2362 15.819V15.6447C30.4599 15.5575 29.9842 15.1965 29.9842 14.686C29.98 14.5536 30.0042 14.4218 30.0552 14.2994C30.1062 14.1771 30.1828 14.0669 30.2799 13.9762C30.3771 13.8855 30.4924 13.8164 30.6185 13.7735C30.7445 13.7306 30.8783 13.7148 31.0109 13.7272C31.3006 13.7472 31.5828 13.8274 31.8394 13.9625C32.0961 14.0976 32.3214 14.2846 32.5009 14.5116L34.6169 12.1584L34.4041 12.009L33.8657 12.6191C33.2916 11.9996 32.5152 11.6025 31.6745 11.4985V4.17719L37.6094 14.4618H38.0351V4.21454C38.6136 4.19587 39.1633 3.959 39.5726 3.55201C39.9819 3.14502 40.2201 2.59841 40.2388 2.02314H40.2764ZM45.5728 11.6105L43.7697 13.0424L41.9166 11.5358V10.6642L45.3975 8.34833V8.24872L43.6445 5.57172L39.8882 7.60126V12.4199L39.137 13.0051L39.2622 13.1545L39.9383 12.6191L42.4425 14.412L45.6729 11.7973L45.5352 11.6105H45.5728ZM41.9166 10.4028V6.81683L42.0419 6.72968L43.6445 9.21991L41.9166 10.4028ZM57.6179 6.40595L57.067 6.81683L55.6897 5.57172L54.062 7.0285L54.7256 7.66351V13.1794L52.9351 12.0463V7.60126L53.5111 7.20282L51.7832 5.57172L50.193 7.07831L50.8566 7.71332V12.9428L50.6813 13.0424L49.1287 11.9467V7.58881C49.1287 6.58026 48.6404 6.34369 47.9893 5.883C47.3382 5.42231 47.2005 5.27289 47.2005 4.76239C47.2005 4.2519 47.6137 4.10248 47.8265 3.99042C47.8212 3.93244 47.8212 3.87409 47.8265 3.81611C47.288 3.8392 46.7753 4.05245 46.3806 4.41757C45.9859 4.7827 45.735 5.27578 45.6729 5.80829C45.6679 6.07977 45.729 6.34843 45.8511 6.59129C45.9732 6.83415 46.1527 7.04397 46.3741 7.20282C46.5745 7.3477 46.7409 7.53402 46.8619 7.74896C46.983 7.9639 47.0558 8.20236 47.0753 8.44794V12.6813L46.2865 13.2914L46.4117 13.4533L47.1254 12.893L49.0661 14.3996L50.9067 13.1545L52.9351 14.3996L56.8416 12.1459V7.27753L57.7932 6.58026L57.6805 6.40595H57.6179ZM71.2408 2.38422L70.5145 3.08149L68.8618 1.61225L66.4703 3.39277V1.72431H66.2199V13.5778C65.982 13.5778 65.3684 13.4035 64.805 13.3163V3.35541C64.8054 3.1195 64.7573 2.886 64.6636 2.66926C64.5699 2.45251 64.4327 2.25709 64.2603 2.09501C64.088 1.93292 63.8841 1.80759 63.6612 1.72672C63.4384 1.64584 63.2012 1.61113 62.9644 1.6247C62.675 1.60783 62.3851 1.64958 62.1124 1.74744C61.8397 1.84529 61.5898 1.9972 61.3779 2.19396C61.166 2.39072 60.9964 2.62823 60.8796 2.89209C60.7627 3.15595 60.701 3.44065 60.6981 3.72895H60.911C60.911 3.29316 61.1989 2.90717 61.6372 2.90717C62.0754 2.90717 62.4761 3.1811 62.4761 4.15229V7.01605C61.1363 7.01605 60.36 7.81293 60.36 8.73431C60.3393 8.91493 60.3556 9.09786 60.408 9.27204C60.4604 9.44621 60.5477 9.60802 60.6647 9.74768C60.7818 9.88733 60.9261 10.0019 61.0889 10.0846C61.2517 10.1672 61.4297 10.2162 61.6121 10.2284V10.0541C61.5031 10.0239 61.4071 9.95872 61.3391 9.86864C61.2712 9.77856 61.2351 9.66868 61.2365 9.55609C61.2365 9.13275 61.6372 8.95843 62.2006 8.95843H62.4636V13.4907C62.0175 13.6147 61.6254 13.8825 61.3489 14.2521C61.0725 14.6217 60.9272 15.0721 60.936 15.5326C60.9433 15.8343 61.0129 16.1313 61.1404 16.4052C61.2678 16.6791 61.4505 16.924 61.6771 17.1248C61.9036 17.3256 62.1693 17.4779 62.4575 17.5724C62.7457 17.667 63.0503 17.7016 63.3526 17.6742C64.3036 17.6558 65.2492 17.5263 66.1698 17.2883C66.8622 17.1304 67.5652 17.0222 68.2733 16.9645C68.8242 16.9645 69.0746 17.226 69.0746 17.6244C69.1016 17.7969 69.0626 17.9732 68.9652 18.1184C68.8678 18.2637 68.7192 18.3673 68.5488 18.4089V18.5832C69.0637 18.5485 69.5463 18.3212 69.8994 17.947C70.2525 17.5727 70.45 17.0793 70.452 16.5661C70.452 15.4455 69.3877 14.7856 68.1982 14.7856C67.278 14.8354 66.3643 14.9687 65.4686 15.184C64.7235 15.3591 63.9658 15.4757 63.2023 15.5326C62.7015 15.5326 62.0629 15.2836 62.0629 14.6113C62.0629 13.9389 62.5763 13.5156 63.8409 13.5156C64.6128 13.5285 65.3811 13.6245 66.1322 13.8019C66.9486 14.0371 67.7883 14.1832 68.6364 14.2377C69.7132 14.2377 70.6648 13.8642 70.6648 12.3078V3.26826L71.5287 2.54609L71.366 2.38422H71.2408ZM68.2107 6.89154C68.0994 7.0145 67.9645 7.11417 67.814 7.18472C67.6636 7.25526 67.5004 7.29528 67.3342 7.30243C66.996 7.2833 66.678 7.1363 66.4452 6.89154V3.64179L67.1965 3.13129L68.2107 4.05268V6.89154ZM68.2107 9.07049C67.9795 8.8359 67.6645 8.70164 67.3342 8.69696C67.002 8.70965 66.6859 8.84247 66.4452 9.07049V7.15302C66.6878 7.38005 67.0019 7.51646 67.3342 7.539C67.4986 7.53506 67.6607 7.49895 67.8111 7.43272C67.9615 7.36649 68.0973 7.27145 68.2107 7.15302V9.07049ZM68.2107 12.4821C68.216 12.6367 68.1891 12.7907 68.1317 12.9344C68.0743 13.0781 67.9876 13.2084 67.877 13.3172C67.7665 13.426 67.6345 13.5108 67.4893 13.5664C67.3442 13.6219 67.1891 13.647 67.0337 13.6401C66.8377 13.652 66.6412 13.652 66.4452 13.6401V9.30707C66.6795 9.06435 66.9966 8.91775 67.3342 8.89618C67.6683 8.91718 67.9818 9.06413 68.2107 9.30707V12.4572V12.4821ZM78.2275 7.28998L75.8986 5.57172L72.3301 7.63861V12.4074L71.5914 13.0424L71.704 13.1918L72.28 12.7187L74.6339 14.4494L78.2275 12.1957V7.28998ZM74.3209 11.8969V6.67987L76.2366 8.06195V13.2914L74.371 11.9592L74.3209 11.8969ZM85.2517 5.79584H85.1015C84.9302 5.96647 84.7043 6.07218 84.4629 6.09467C84.3052 6.08743 84.1506 6.04838 84.0086 5.97989C83.8665 5.91139 83.7399 5.81488 83.6365 5.69623H83.4988L82.2467 7.04096L80.9946 5.69623L78.8535 7.19037L78.9662 7.36469L79.5422 6.9787L80.2934 7.77557V12.3949L79.3168 13.1171L79.4295 13.2541L79.9053 12.9304L81.6707 14.4245L83.9621 12.9054L83.8619 12.756L83.2108 13.142L82.3594 12.37V7.24017C82.5079 7.44102 82.695 7.61051 82.91 7.73876C83.1249 7.86701 83.3634 7.95148 83.6115 7.98724C84.5881 7.98724 85.1265 6.90399 85.2392 5.79584H85.2517ZM94.0164 12.8058L91.5122 14.4369L88.2442 9.30707L90.6483 5.57172H90.7484C91.0833 5.90571 91.5276 6.10897 92.0005 6.14447C92.2143 6.14835 92.4254 6.09775 92.6139 5.99749C92.8024 5.89723 92.9619 5.75065 93.0773 5.57172H93.2526C93.2918 6.12584 93.1226 6.67468 92.7779 7.11179C92.4332 7.5489 91.9375 7.84314 91.387 7.93744C90.8204 7.91733 90.2775 7.70662 89.8469 7.33978L89.6216 7.67596L93.2526 13.0424L93.9914 12.5942L94.0915 12.7685L94.0164 12.8058ZM85.9404 12.3949L84.9512 13.1171L85.0764 13.2541L85.5522 12.9304L87.1925 14.4245L89.4963 12.9677L89.3837 12.8058L88.8202 13.1669L88.1065 12.4572V1.16401H87.9437L85.3018 2.91962V3.08149C85.5387 3.14783 85.7442 3.29562 85.8818 3.49855C86.0194 3.70148 86.0801 3.94638 86.0531 4.18964V12.3949H85.9404ZM106.212 2.68305C106.212 1.23872 104.847 0.815379 103.708 0.865184V1.10176C104.396 1.10176 104.96 1.33833 104.96 1.78657C104.96 2.23481 104.734 2.50874 104.046 2.50874C103.214 2.41127 102.398 2.21048 101.617 1.91108C100.817 1.58607 99.9729 1.38047 99.1124 1.30097C98.7914 1.29103 98.4715 1.34452 98.1713 1.45834C97.8712 1.57216 97.5967 1.74405 97.3638 1.96407C97.1309 2.18409 96.9442 2.44786 96.8145 2.74012C96.6848 3.03238 96.6147 3.34731 96.6083 3.66669C96.6054 4.01778 96.714 4.36081 96.9186 4.64696C97.1231 4.93311 97.4133 5.14779 97.7477 5.26044L97.8478 5.08612C97.7175 5.00902 97.6118 4.89673 97.5431 4.76228C97.4744 4.62783 97.4455 4.47675 97.4597 4.3266C97.4705 4.20631 97.5056 4.08943 97.563 3.98297C97.6203 3.87651 97.6987 3.78267 97.7934 3.70708C97.8881 3.6315 97.9972 3.57572 98.1142 3.54311C98.2311 3.51049 98.3534 3.5017 98.4739 3.51728C99.3932 3.61577 100.297 3.82481 101.166 4.13984C102.051 4.39398 102.95 4.59768 103.858 4.74994V7.04096L102.744 7.97479V8.06195L103.858 9.03314V12.1459C103.301 12.444 102.675 12.5901 102.042 12.5693C101.504 12.5919 100.967 12.4991 100.468 12.2971C99.969 12.0952 99.5195 11.7888 99.15 11.3989L102.168 9.95453V4.97406L98.4113 6.60516C98.807 5.71315 99.4897 4.97729 100.352 4.51337V4.33906C99.2025 4.62964 98.1766 5.27819 97.4242 6.18994C96.6718 7.10169 96.2323 8.22884 96.17 9.40667C96.1667 10.0824 96.2977 10.7522 96.5555 11.3774C96.8133 12.0027 97.1927 12.5712 97.6721 13.0502C98.1514 13.5291 98.7212 13.9092 99.3487 14.1686C99.9762 14.428 100.649 14.5615 101.329 14.5615C101.965 14.5784 102.598 14.4669 103.189 14.2337C103.781 14.0006 104.319 13.6505 104.771 13.2048C105.222 12.7591 105.579 12.2269 105.818 11.6404C106.057 11.054 106.174 10.4254 106.162 9.79266H105.986C105.6 10.7266 104.942 11.5244 104.096 12.0837V9.03314L105.348 8.08685V7.98724L104.183 7.04096V4.7873C104.469 4.79901 104.754 4.75334 105.022 4.653C105.29 4.55267 105.534 4.39973 105.741 4.20332C105.948 4.00692 106.113 3.77107 106.226 3.50987C106.339 3.24866 106.398 2.96746 106.4 2.68305H106.212ZM99.8261 10.7763L98.9372 11.1996C98.4054 10.3756 98.1672 9.39776 98.261 8.42303C98.2271 7.88239 98.2821 7.33987 98.4238 6.81683L99.9639 6.14447V10.7389L99.8261 10.7763ZM108.741 2.06049H108.628L107.163 3.30561V3.40522L108.416 4.79975H108.541L110.006 3.55463V3.40522L108.754 1.99824L108.741 2.06049ZM110.97 12.8681L110.419 13.2292L109.693 12.5195V7.539L110.394 7.01605L110.256 6.84174L109.718 7.25262L108.553 5.57172L106.45 7.07831L106.575 7.27753L107.101 6.92889L107.752 7.72577V12.4572L106.8 13.1669L106.9 13.3163L107.401 12.9677L109.004 14.4245L111.208 12.9677L111.083 12.8058L110.97 12.8681ZM123.303 12.7187L122.777 13.0673L122.051 12.3576V7.37714L122.802 6.82929L122.677 6.66742L122.051 7.16547L120.323 5.57172L118.157 7.15302L116.492 5.57172L114.363 7.07831L113.048 5.57172L110.945 7.07831L111.057 7.27753L111.583 6.92889L112.297 7.71332V12.4448L111.721 13.0175L113.399 14.4245L115.027 12.9677L114.363 12.3327V7.35223L114.989 6.94135L116.128 7.98724V12.4074L115.565 12.9802L117.268 14.3871L118.858 12.9304L118.194 12.2953V7.31488L118.758 6.94135L120.01 7.97479V12.3202L119.522 12.8307L121.237 14.3747L123.491 12.8432L123.303 12.7187ZM129.689 11.6105L127.923 13.0424L126.045 11.5732V10.7016L129.563 8.34833V8.24872L127.798 5.57172L124.042 7.60126V12.5817L126.546 14.412L129.876 11.7973L129.739 11.6105H129.689ZM126.008 10.3654V6.81683L126.133 6.72968L127.748 9.21991L126.008 10.3654ZM136.4 9.69305L134.985 8.62225C135.368 8.28835 135.677 7.87915 135.892 7.42052C136.108 6.96189 136.225 6.4638 136.237 5.95771C136.247 5.80429 136.247 5.65043 136.237 5.49701H136.062C136 5.70822 135.87 5.89289 135.69 6.02153C135.511 6.15017 135.294 6.21538 135.073 6.20673C134.826 6.18492 134.587 6.11152 134.372 5.99135C134.156 5.87118 133.968 5.70695 133.821 5.50946L130.515 7.30243V10.0043L131.767 10.9631C130.515 12.0588 130.29 12.8183 130.29 13.3786C130.264 13.6981 130.345 14.0171 130.519 14.2868C130.693 14.5566 130.951 14.7623 131.254 14.8727L131.341 14.7233C131.246 14.6644 131.168 14.5816 131.116 14.4832C131.063 14.3848 131.037 14.2744 131.041 14.163C131.041 13.914 131.341 13.5654 131.905 13.5654C132.176 13.5795 132.441 13.654 132.679 13.7833C132.917 13.9126 133.123 14.0934 133.282 14.3124L136.463 12.4199V9.7304L136.4 9.69305ZM135.624 7.4892C135.005 8.35476 134.238 9.10503 133.357 9.7055L132.556 9.08294V6.51801C132.733 6.88021 133.006 7.18752 133.346 7.4069C133.686 7.62628 134.079 7.74943 134.484 7.76312C134.883 7.77522 135.278 7.67602 135.624 7.47675V7.4892ZM134.372 13.3039C134.188 12.8978 133.893 12.5509 133.521 12.3023C133.15 12.0537 132.716 11.9133 132.268 11.8969C131.785 11.8839 131.308 12.0046 130.891 12.2455C131.57 11.2859 132.45 10.4833 133.47 9.89227L134.372 10.5895V13.3039Z" fill="white"/>
<path d="M52.5103 44.6118V36.4189H51.0078V31.5754H61.0246V34.3271C62.6398 32.6213 64.4303 31.1645 66.947 31.1645C67.2932 31.1457 67.6401 31.1457 67.9862 31.1645V37.3901C66.6439 37.3184 65.2978 37.4146 63.9795 37.6765C63.4678 37.7818 62.9824 37.9881 62.5523 38.2832C62.1222 38.5784 61.7559 38.9563 61.4753 39.3948C61.0464 40.4824 60.8916 41.658 61.0246 42.8188V44.6118H63.0405V49.4553H51.0078V44.6118H52.5103Z" fill="white"/>
<path d="M79.0976 49.8222C76.2919 49.9749 73.5255 49.1124 71.3096 47.3943C70.3147 46.528 69.5215 45.4567 68.9852 44.2546C68.449 43.0526 68.1825 41.7489 68.2044 40.4341C68.2044 34.582 72.8872 31.1953 78.4716 31.1953C84.5443 31.1953 88.4884 35.4412 88.4884 40.5835C88.4884 41.1811 88.4884 41.7414 88.4132 42.3266H76.6435C76.9691 44.4184 78.0459 45.4145 79.7738 45.4145C80.3367 45.4111 80.8895 45.2653 81.3802 44.9909C81.8708 44.7164 82.2832 44.3223 82.5785 43.8457H88.4633C87.2238 47.9048 83.4424 49.8222 79.0976 49.8222ZM76.5934 39.5749H81.0259V39.189C81.0259 37.6575 80.6502 36.1011 78.8096 36.1011C78.3626 36.0874 77.9232 36.2185 77.5574 36.4744C77.1916 36.7304 76.9193 37.0974 76.7812 37.5205C76.6148 38.1921 76.5724 38.8882 76.656 39.5749H76.5934Z" fill="white"/>
<path d="M97.8362 31.1967C98.6401 31.1245 99.4502 31.2238 100.212 31.4879C100.975 31.752 101.671 32.1748 102.256 32.7282V31.5702H107.653V38.5304H102.256C102.256 36.8993 101.505 36.0402 100.453 36.0402C99.1134 36.0402 98.2118 37.4969 98.2118 39.5389C98.1573 40.2143 98.2525 40.8933 98.4906 41.5281C98.7287 42.163 99.1039 42.7381 99.5898 43.213C100.076 43.6879 100.661 44.0511 101.303 44.2768C101.945 44.5025 102.63 44.5853 103.308 44.5194C104.781 44.5027 106.244 44.2763 107.653 43.847V48.5038C105.437 49.3866 103.064 49.8103 100.678 49.7489C98.4994 49.8652 96.331 49.3736 94.418 48.3294C92.9484 47.4626 91.7368 46.223 90.9074 44.7374C90.078 43.2519 89.6605 41.5739 89.6976 39.8751C89.7477 34.8822 93.1534 31.1967 97.8362 31.1967Z" fill="white"/>
<path d="M116.946 49.8315C112.94 49.8315 110.46 47.5156 110.46 43.7927V36.4216H108.883V31.5781H118.9V42.311C118.9 43.7927 119.538 44.6145 120.815 44.6145C122.092 44.6145 122.618 43.7927 122.618 42.311V36.4216H120.953V31.5781H131.108V44.6145H132.61V49.458H122.593V47.3662C121.024 48.7669 119.045 49.6309 116.946 49.8315Z" fill="white"/>
<path d="M132.984 36.4204V31.5769H134.675V25.9863H143.139V31.5769H145.643V36.4204H143.139V44.6133H145.643V49.4568H134.675V36.4204H132.984Z" fill="white"/>
<path d="M146.727 36.4204V31.5769H148.417V25.9863H156.881V31.5769H159.385V36.4204H156.881V44.6133H159.385V49.4568H148.417V36.4204H146.727Z" fill="white"/>
<path d="M171.493 49.8222C168.683 49.9745 165.913 49.1123 163.692 47.3943C162.699 46.5264 161.907 45.4547 161.371 44.2531C160.835 43.0515 160.568 41.7485 160.587 40.4341C160.587 34.582 165.27 31.1953 170.854 31.1953C176.927 31.1953 180.933 35.4412 180.933 40.5835C180.933 41.1811 180.933 41.7414 180.858 42.3266H169.089C169.314 44.4184 170.441 45.4145 172.131 45.4145C172.694 45.4099 173.246 45.2636 173.737 44.9893C174.227 44.715 174.64 44.3215 174.936 43.8457H180.896C179.644 47.9048 175.888 49.8222 171.493 49.8222ZM168.988 39.5749H173.408V39.189C173.408 37.6575 173.033 36.1011 171.205 36.1011C170.758 36.0874 170.318 36.2185 169.952 36.4744C169.587 36.7304 169.314 37.0974 169.176 37.5205C169.01 38.1921 168.967 38.8882 169.051 39.5749H168.988Z" fill="white"/>
<path d="M183.776 44.6116V36.4188H182.273V31.5753H192.29V34.327C193.905 32.6212 195.696 31.1644 198.213 31.1644C198.563 31.1457 198.914 31.1457 199.264 31.1644V37.39C197.922 37.317 196.576 37.4132 195.258 37.6763C194.746 37.7816 194.261 37.9879 193.83 38.2831C193.4 38.5782 193.034 38.9562 192.753 39.3946C192.325 40.4823 192.17 41.6578 192.303 42.8187V44.6116H194.331V49.4551H182.273V44.6116H183.776Z" fill="white"/>
<path d="M39.7509 44.6316V36.4885H38.2734V31.7197H48.1775V44.6689H49.7426V49.4751H38.2734V44.6316H39.7509ZM48.1775 23.502V29.8271H39.7509V23.502H48.1775Z" fill="white"/>
<path d="M1.21094 28.7314V23.502H13.6067V28.7314H11.8663L14.5207 39.1904L18.5149 23.502H24.9757L28.9449 39.6885H29.0075L31.8998 28.7314H29.2204V23.502H38.2229V28.7314H37.1962L31.3364 49.4502H23.1352L20.1927 37.7212H20.1301L17.1501 49.4502H8.78613L2.87623 28.7314H1.21094Z" fill="white"/>
</svg>
